HIERARCHY
ROOT Root
{
  OFFSET 0.0 0.0 0.0
  CHANNELS 6 Xposition Yposition Zposition Zrotation Yrotation Xrotation
  JOINT Hips
  {
    OFFSET 0.0 100.0 0.0
    CHANNELS 6 Xposition Yposition Zposition Zrotation Yrotation Xrotation
    JOINT Spine1
    {
      OFFSET -0.013727 5.003763 -0.053727
      CHANNELS 3 Zrotation Yrotation Xrotation
      JOINT Spine2
      {
        OFFSET -0.0 7.125301 -0.029825
        CHANNELS 3 Zrotation Yrotation Xrotation
        JOINT Chest
        {
          OFFSET -1e-06 7.550063 -0.815971
          CHANNELS 3 Zrotation Yrotation Xrotation
          JOINT Neck1
          {
            OFFSET -0.181677 26.311295 -0.553348
            CHANNELS 3 Zrotation Yrotation Xrotation
            JOINT Neck2
            {
              OFFSET -3e-06 7.709397 2.302585
              CHANNELS 3 Zrotation Yrotation Xrotation
              JOINT Head
              {
                OFFSET -5e-06 6.128916 1.953709
                CHANNELS 3 Zrotation Yrotation Xrotation
                JOINT HeadEnd
                {
                  OFFSET 0.003598 16.065403 -1.835379
                  CHANNELS 3 Zrotation Yrotation Xrotation
                }
                JOINT Jaw
                {
                  OFFSET 0.002637 0.475592 3.094941
                  CHANNELS 3 Zrotation Yrotation Xrotation
                }
                JOINT LeftEye
                {
                  OFFSET 3.206381 5.380205 7.586883
                  CHANNELS 3 Zrotation Yrotation Xrotation
                }
                JOINT RightEye
                {
                  OFFSET -3.22244 5.361869 7.558234
                  CHANNELS 3 Zrotation Yrotation Xrotation
                }
              }
            }
          }
          JOINT LeftShoulder
          {
            OFFSET 1.621652 23.237164 5.113413
            CHANNELS 3 Zrotation Yrotation Xrotation
            JOINT LeftArm
            {
              OFFSET 14.919846 2e-06 -5.502326
              CHANNELS 3 Zrotation Yrotation Xrotation
              JOINT LeftForeArm
              {
                OFFSET 28.739307 0.0 -0.002588
                CHANNELS 3 Zrotation Yrotation Xrotation
                JOINT LeftHand
                {
                  OFFSET 27.093981 -1e-06 0.002609
                  CHANNELS 3 Zrotation Yrotation Xrotation
                  JOINT LeftHandThumb1
                  {
                    OFFSET 2.276482 -1.392045 3.191413
                    CHANNELS 3 Zrotation Yrotation Xrotation
                    JOINT LeftHandThumb2
                    {
                      OFFSET 4.012836 -1.828127 1.641654
                      CHANNELS 3 Zrotation Yrotation Xrotation
                      JOINT LeftHandThumb3
                      {
                        OFFSET 2.798515 0.0 -3e-06
                        CHANNELS 3 Zrotation Yrotation Xrotation
                        JOINT LeftHandThumbEnd
                        {
                          OFFSET 3.180793 -4e-06 4e-06
                          CHANNELS 3 Zrotation Yrotation Xrotation
                        }
                      }
                    }
                  }
                  JOINT LeftHandIndex1
                  {
                    OFFSET 3.247555 -0.531998 2.296169
                    CHANNELS 3 Zrotation Yrotation Xrotation
                    JOINT LeftHandIndex2
                    {
                      OFFSET 6.364578 0.01206 0.1786
                      CHANNELS 3 Zrotation Yrotation Xrotation
                      JOINT LeftHandIndex3
                      {
                        OFFSET 3.662364 0.0 0.0
                        CHANNELS 3 Zrotation Yrotation Xrotation
                        JOINT LeftHandIndex4
                        {
                          OFFSET 2.329242 4e-06 4e-06
                          CHANNELS 3 Zrotation Yrotation Xrotation
                          JOINT LeftHandIndexEnd
                          {
                            OFFSET 2.759615 -0.180537 -0.113024
                            CHANNELS 3 Zrotation Yrotation Xrotation
                          }
                        }
                      }
                    }
                  }
                  JOINT LeftHandMiddle1
                  {
                    OFFSET 3.163495 0.240981 1.000332
                    CHANNELS 3 Zrotation Yrotation Xrotation
                    JOINT LeftHandMiddle2
                    {
                      OFFSET 6.19078 -0.259278 -1.002548
                      CHANNELS 3 Zrotation Yrotation Xrotation
                      JOINT LeftHandMiddle3
                      {
                        OFFSET 4.35652 -4e-06 -1e-06
                        CHANNELS 3 Zrotation Yrotation Xrotation
                        JOINT LeftHandMiddle4
                        {
                          OFFSET 2.996877 -8e-06 0.0
                          CHANNELS 3 Zrotation Yrotation Xrotation
                          JOINT LeftHandMiddleEnd
                          {
                            OFFSET 2.304287 -0.294569 -0.031741
                            CHANNELS 3 Zrotation Yrotation Xrotation
                          }
                        }
                      }
                    }
                  }
                  JOINT LeftHandRing1
                  {
                    OFFSET 2.882643 -0.053652 -0.322543
                    CHANNELS 3 Zrotation Yrotation Xrotation
                    JOINT LeftHandRing2
                    {
                      OFFSET 5.854541 -0.486202 -1.373841
                      CHANNELS 3 Zrotation Yrotation Xrotation
                      JOINT LeftHandRing3
                      {
                        OFFSET 4.350578 0.0 3e-06
                        CHANNELS 3 Zrotation Yrotation Xrotation
                        JOINT LeftHandRing4
                        {
                          OFFSET 2.651321 7e-06 2e-06
                          CHANNELS 3 Zrotation Yrotation Xrotation
                          JOINT LeftHandRingEnd
                          {
                            OFFSET 1.936105 0.077687 -7.1e-05
                            CHANNELS 3 Zrotation Yrotation Xrotation
                          }
                        }
                      }
                    }
                  }
                  JOINT LeftHandPinky1
                  {
                    OFFSET 2.8655 -0.310005 -1.600378
                    CHANNELS 3 Zrotation Yrotation Xrotation
                    JOINT LeftHandPinky2
                    {
                      OFFSET 5.087849 -1.331141 -1.77123
                      CHANNELS 3 Zrotation Yrotation Xrotation
                      JOINT LeftHandPinky3
                      {
                        OFFSET 3.070974 4e-06 0.0
                        CHANNELS 3 Zrotation Yrotation Xrotation
                        JOINT LeftHandPinky4
                        {
                          OFFSET 1.549672 0.0 1e-06
                          CHANNELS 3 Zrotation Yrotation Xrotation
                          JOINT LeftHandPinkyEnd
                          {
                            OFFSET 1.944893 -0.157802 0.057219
                            CHANNELS 3 Zrotation Yrotation Xrotation
                          }
                        }
                      }
                    }
                  }
                }
              }
            }
          }
          JOINT RightShoulder
          {
            OFFSET -1.380118 23.180309 5.214158
            CHANNELS 3 Zrotation Yrotation Xrotation
            JOINT RightArm
            {
              OFFSET -15.037196 1.2e-05 -5.545604
              CHANNELS 3 Zrotation Yrotation Xrotation
              JOINT RightForeArm
              {
                OFFSET -28.736639 2e-06 -0.002597
                CHANNELS 3 Zrotation Yrotation Xrotation
                JOINT RightHand
                {
                  OFFSET -27.133619 -0.0 0.002613
                  CHANNELS 3 Zrotation Yrotation Xrotation
                  JOINT RightHandThumb1
                  {
                    OFFSET -2.274032 -1.383988 3.163127
                    CHANNELS 3 Zrotation Yrotation Xrotation
                    JOINT RightHandThumb2
                    {
                      OFFSET -4.011429 -1.827466 1.640914
                      CHANNELS 3 Zrotation Yrotation Xrotation
                      JOINT RightHandThumb3
                      {
                        OFFSET -2.794935 -4e-06 -3e-06
                        CHANNELS 3 Zrotation Yrotation Xrotation
                        JOINT RightHandThumbEnd
                        {
                          OFFSET -3.183852 4e-06 1e-06
                          CHANNELS 3 Zrotation Yrotation Xrotation
                        }
                      }
                    }
                  }
                  JOINT RightHandIndex1
                  {
                    OFFSET -3.253266 -0.520057 2.282866
                    CHANNELS 3 Zrotation Yrotation Xrotation
                    JOINT RightHandIndex2
                    {
                      OFFSET -6.341917 0.012471 0.178266
                      CHANNELS 3 Zrotation Yrotation Xrotation
                      JOINT RightHandIndex3
                      {
                        OFFSET -3.654871 -8e-06 -0.0
                        CHANNELS 3 Zrotation Yrotation Xrotation
                        JOINT RightHandIndex4
                        {
                          OFFSET -2.327586 0.0 1e-06
                          CHANNELS 3 Zrotation Yrotation Xrotation
                          JOINT RightHandIndexEnd
                          {
                            OFFSET -2.76179 -0.180656 -0.113078
                            CHANNELS 3 Zrotation Yrotation Xrotation
                          }
                        }
                      }
                    }
                  }
                  JOINT RightHandMiddle1
                  {
                    OFFSET -3.168106 0.246593 1.00103
                    CHANNELS 3 Zrotation Yrotation Xrotation
                    JOINT RightHandMiddle2
                    {
                      OFFSET -6.180828 -0.258836 -1.000895
                      CHANNELS 3 Zrotation Yrotation Xrotation
                      JOINT RightHandMiddle3
                      {
                        OFFSET -4.348901 0.0 -0.0
                        CHANNELS 3 Zrotation Yrotation Xrotation
                        JOINT RightHandMiddle4
                        {
                          OFFSET -3.00024 -4e-06 -2e-06
                          CHANNELS 3 Zrotation Yrotation Xrotation
                          JOINT RightHandMiddleEnd
                          {
                            OFFSET -2.30252 -0.29437 -0.031706
                            CHANNELS 3 Zrotation Yrotation Xrotation
                          }
                        }
                      }
                    }
                  }
                  JOINT RightHandRing1
                  {
                    OFFSET -2.88569 -0.067952 -0.308858
                    CHANNELS 3 Zrotation Yrotation Xrotation
                    JOINT RightHandRing2
                    {
                      OFFSET -5.854198 -0.48613 -1.373731
                      CHANNELS 3 Zrotation Yrotation Xrotation
                      JOINT RightHandRing3
                      {
                        OFFSET -4.33881 -4e-06 -0.0
                        CHANNELS 3 Zrotation Yrotation Xrotation
                        JOINT RightHandRing4
                        {
                          OFFSET -2.654903 -4e-06 4e-06
                          CHANNELS 3 Zrotation Yrotation Xrotation
                          JOINT RightHandRingEnd
                          {
                            OFFSET -1.933568 0.077527 -5.2e-05
                            CHANNELS 3 Zrotation Yrotation Xrotation
                          }
                        }
                      }
                    }
                  }
                  JOINT RightHandPinky1
                  {
                    OFFSET -2.866425 -0.342796 -1.584145
                    CHANNELS 3 Zrotation Yrotation Xrotation
                    JOINT RightHandPinky2
                    {
                      OFFSET -5.091371 -1.332055 -1.772385
                      CHANNELS 3 Zrotation Yrotation Xrotation
                      JOINT RightHandPinky3
                      {
                        OFFSET -3.062664 -4e-06 1e-06
                        CHANNELS 3 Zrotation Yrotation Xrotation
                        JOINT RightHandPinky4
                        {
                          OFFSET -1.546529 4e-06 -2e-06
                          CHANNELS 3 Zrotation Yrotation Xrotation
                          JOINT RightHandPinkyEnd
                          {
                            OFFSET -1.945119 -0.157718 0.057211
                            CHANNELS 3 Zrotation Yrotation Xrotation
                          }
                        }
                      }
                    }
                  }
                }
              }
            }
          }
        }
      }
    }
    JOINT LeftLeg
    {
      OFFSET 10.043214 -8.434526 2.595655
      CHANNELS 3 Zrotation Yrotation Xrotation
      JOINT LeftShin
      {
        OFFSET -1e-06 -43.221752 -0.802913
        CHANNELS 3 Zrotation Yrotation Xrotation
        JOINT LeftFoot
        {
          OFFSET 1e-06 -42.155094 -3.481523
          CHANNELS 3 Zrotation Yrotation Xrotation
          JOINT LeftToeBase
          {
            OFFSET 0.0 -5.059472 13.231529
            CHANNELS 3 Zrotation Yrotation Xrotation
            JOINT LeftToeEnd
            {
              OFFSET -0.009607 -1.647619 6.513017
              CHANNELS 3 Zrotation Yrotation Xrotation
            }
          }
        }
      }
    }
    JOINT RightLeg
    {
      OFFSET -10.047278 -8.29526 2.620317
      CHANNELS 3 Zrotation Yrotation Xrotation
      JOINT RightShin
      {
        OFFSET 1e-06 -43.362206 -0.805556
        CHANNELS 3 Zrotation Yrotation Xrotation
        JOINT RightFoot
        {
          OFFSET 2e-06 -42.117393 -3.478398
          CHANNELS 3 Zrotation Yrotation Xrotation
          JOINT RightToeBase
          {
            OFFSET -0.0 -5.079609 13.284196
            CHANNELS 3 Zrotation Yrotation Xrotation
            JOINT RightToeEnd
            {
              OFFSET 0.009532 -1.634378 6.460591
              CHANNELS 3 Zrotation Yrotation Xrotation
            }
          }
        }
      }
    }
  }
}
MOTION
Frames: 4
Frame Time: 0.03333333333333333
0.0 0.0 0.0 0.0 -0.0 0.0 -32.75481 87.742828 314.663177 -1.141734 -4.70711 11.162021 -0.292021 -1.720251 6.95854 -0.909233 -2.822309 -2.305536 -1.054964 -4.161628 9.638065 2.747818 1.915906 -7.630422 0.17115 3.766172 -3.631853 -1.139803 2.268176 -13.77338 7.7e-05 -2.2e-05 6e-06 0.014753 0.157168 -0.023686 0.749117 -3.539138 -10.646147 -0.727062 3.841146 -10.668474 -2.264102 -14.086742 10.572734 -21.979101 -15.357781 -15.329014 -177.777039 -67.324974 176.879013 23.593506 -1.591953 21.795267 -5.882102 9.861278 0.702588 -10.936861 -0.360573 7.156197 -0.0 8.774817 -2e-06 -16.640335 17.159321 5.756713 -1.84403 2.498502 -2.507276 -10.16359 4.67894 4.621102 -20.976006 -4e-06 -0.0 -21.226269 2.451697 -3.594 -1e-06 -5e-06 -1e-06 -1.36268 2.240796 -0.746324 -21.334892 0.58491 3.008316 -13.821201 -2e-06 -0.0 -23.887152 -0.24908 -0.839486 -59.600094 2.688159 -1.007314 -0.294026 1.679688 0.833256 -14.218194 0.093218 1.300576 -34.212017 -0.287563 0.967163 -20.033197 0.964537 1.212837 0.0 1e-06 2e-06 -3.440385 0.788233 0.501654 -15.928172 -3.167303 2.999701 -6.33882 3e-06 -1e-06 -18.123432 3.64818 -4.905669 -4e-06 -0.0 -3e-06 2.924459 7.90914 12.806403 59.581406 -12.214167 11.561316 174.957947 85.66555 175.492035 -19.010469 12.525537 10.48825 2.243539 -5.255032 -3.180153 14.282873 -0.826595 6.952495 -0.0 -12.690592 0.0 15.062651 -18.000429 2.876345 1.665663 -1.95592 -2.878296 4.727794 -4.170583 4.993921 11.020515 2e-06 -1e-06 12.109038 -3.735713 -2.866779 0.0 -3e-06 -2e-06 1.291986 -1.928548 -1.498088 14.800112 0.567468 3.865602 14.242558 -1.341735 -6.660649 19.631945 0.143925 -0.648245 49.270817 -0.307016 -6.680524 0.353028 -1.511148 -0.031938 20.222769 3.684305 2.316627 18.787252 2e-06 -1e-06 10.751616 -0.479868 1.397905 -1e-06 -0.0 0.0 3.273802 0.305947 -0.580109 21.486786 11.830359 2.266129 8.162918 1e-06 -1e-06 18.399063 -3.798981 -4.940571 3e-06 -0.0 -2e-06 -0.115711 3.78203 -1.902201 0.385183 -0.35712 43.916431 2.106183 0.900749 -21.242847 2.082951 -1.709636 -22.953592 -0.0 0.0 2e-06 0.445559 1.128745 -59.635849 -0.373061 -0.308163 89.731407 -5.640674 -8.594594 -5.326721 -1.614502 0.979048 -5.874719 0.0 0.0 -1e-06 
0.0 0.0 0.0 0.0 -0.0 0.0 -34.385139 90.054726 330.448578 -3.224461 -6.973955 11.22114 0.218371 -1.833472 5.814229 -0.417442 -3.332784 -2.70773 0.434675 -4.447899 8.978858 1.18943 2.802065 -5.498209 0.55551 5.217299 -3.563366 -0.94032 4.213389 -11.73567 7.7e-05 -2.3e-05 6e-06 0.006516 0.133313 0.029504 0.766264 -3.605267 -10.774365 -0.759475 3.856774 -10.760517 -2.134972 -11.987445 10.293416 -26.36507 -14.206379 -11.210634 -174.893311 -66.946861 174.422043 24.796616 -2.024304 20.857416 -5.882104 9.861283 0.702587 -10.936863 -0.360575 7.156198 0.0 8.77482 -2e-06 -16.40132 17.297726 5.81718 -1.844035 2.498503 -2.507277 -10.163595 4.678943 4.621101 -20.976013 -3e-06 -3e-06 -21.226274 2.451693 -3.594005 -1e-06 -5e-06 0.0 -1.362682 2.240797 -0.746322 -21.334902 0.58491 3.008314 -13.821206 -2e-06 -2e-06 -23.887157 -0.249082 -0.83949 -59.438091 2.66526 -0.754284 -0.294025 1.679687 0.833257 -14.218199 0.093217 1.300576 -34.212032 -0.287565 0.967159 -20.033201 0.964534 1.212836 1e-06 1e-06 0.0 -3.440387 0.788233 0.501654 -15.928176 -3.167306 2.999701 -6.338823 1e-06 0.0 -18.123438 3.64818 -4.905671 -2e-06 -2e-06 -1e-06 1.241156 8.743073 13.925179 60.78775 -11.141679 11.808709 7.021282 86.804878 7.028531 -19.239229 13.021998 9.699283 2.243542 -5.255037 -3.180154 14.282888 -0.826598 6.952498 0.0 -12.690597 -2e-06 15.129376 -17.700071 3.138028 1.665665 -1.95592 -2.878298 4.7278 -4.170588 4.99392 11.020521 -1e-06 -1e-06 12.109049 -3.735717 -2.866781 -1e-06 1e-06 -2e-06 1.291985 -1.928551 -1.498088 14.800123 0.567465 3.865607 14.242568 -1.34174 -6.660655 19.63196 0.143919 -0.648246 49.586674 0.117737 -6.158774 0.353031 -1.51115 -0.03194 20.222788 3.684305 2.31663 18.78727 3e-06 -1e-06 10.751625 -0.479871 1.397907 -1e-06 -3e-06 0.0 3.273803 0.305947 -0.580108 21.486807 11.830365 2.266137 8.162926 -1e-06 -2e-06 18.39908 -3.798988 -4.940577 3e-06 0.0 -1e-06 2.077125 4.142831 8.077081 0.225842 -0.324244 34.833073 2.807914 0.479551 6.397423 2.423285 -1.433125 -33.42778 0.0 -0.0 2e-06 3.320608 0.826741 -60.0121 -0.055758 -0.079964 69.273659 -2.880542 -5.698221 -7.322949 -1.425589 0.684749 -4.898659 0.0 0.0 -1e-06 
0.0 0.0 0.0 0.0 -0.0 0.0 -35.977264 92.114212 345.893097 -3.095486 -8.338816 10.297532 -0.440361 -2.047564 5.397831 -0.12228 -3.189052 -3.0496 1.01871 -4.287154 9.151505 0.245734 3.249521 -4.297121 0.949079 5.727268 -3.411092 -1.005541 5.610903 -10.228635 7.7e-05 -2.2e-05 6e-06 0.002873 0.065449 0.045223 0.718266 -3.660451 -10.715021 -0.719052 3.781205 -10.673586 -2.4265 -10.534204 10.492761 -33.853432 -14.081076 -4.100338 -172.961411 -68.387672 172.864487 25.995926 -5.355486 18.218447 -5.882098 9.861279 0.702591 -10.936862 -0.360574 7.1562 1e-06 8.774821 -1e-06 -16.059206 17.55007 6.012126 -1.844032 2.4985 -2.507277 -10.16359 4.67894 4.621106 -20.976006 -7e-06 4e-06 -21.226271 2.451696 -3.593998 -2e-06 -4e-06 -1e-06 -1.362679 2.240798 -0.746323 -21.334898 0.584908 3.008324 -13.821203 -5e-06 2e-06 -23.887154 -0.249079 -0.839481 -59.190876 2.460671 -1.066828 -0.294026 1.679685 0.833255 -14.218197 0.093215 1.300583 -34.212021 -0.287565 0.967174 -20.033194 0.964537 1.212847 1e-06 -0.0 1e-06 -3.440387 0.788233 0.501655 -15.928174 -3.16731 2.999706 -6.33882 1e-06 1e-06 -18.12343 3.648179 -4.905664 -5e-06 -1e-06 -2e-06 1.179725 9.175491 15.54181 62.001644 -8.219821 11.558212 -0.882355 77.923149 -1.066005 -20.011038 13.736424 8.490151 2.243537 -5.25503 -3.180152 14.282872 -0.826595 6.952493 -3e-06 -12.690589 -1e-06 14.758287 -17.725822 3.376531 1.665662 -1.95592 -2.878296 4.727791 -4.17058 4.993917 11.020509 4e-06 -1e-06 12.109035 -3.735711 -2.866779 0.0 1e-06 -2e-06 1.291984 -1.928546 -1.498087 14.800107 0.567468 3.865603 14.242551 -1.341735 -6.660648 19.631937 0.143925 -0.648241 49.494308 0.082015 -5.841002 0.353027 -1.511148 -0.03194 20.222765 3.684307 2.316627 18.787247 4e-06 -1e-06 10.751613 -0.479867 1.397904 -1e-06 -1e-06 -2e-06 3.273803 0.305946 -0.58011 21.486786 11.830359 2.26613 8.162915 1e-06 -1e-06 18.399057 -3.79898 -4.940569 3e-06 -1e-06 -1e-06 0.514607 1.621664 10.883943 0.121436 -0.05466 36.40646 -0.999388 1.121859 27.313234 2.126178 -1.801164 -6.216517 0.0 0.0 2e-06 4.249528 -0.240547 -54.974918 0.188539 0.068524 47.770966 4.206001 0.487896 -9.971961 -1.410332 0.71162 -5.931174 -0.0 1e-06 -1e-06 
0.0 0.0 0.0 0.0 -0.0 0.0 -37.722 92.984619 360.318848 -1.811053 -9.01123 8.435731 -1.21139 -1.522267 6.054788 -0.198844 -2.518676 -2.825259 0.594581 -3.891733 9.457617 -0.141303 3.234601 -3.953909 0.99306 5.527652 -3.359542 -0.81789 5.871931 -11.138187 7.7e-05 -2.2e-05 6e-06 0.00843 0.087591 0.059658 0.706659 -3.661221 -10.67593 -0.698818 3.825826 -10.630599 -3.105182 -9.908982 11.475823 -41.355183 -13.741761 3.729875 -174.429672 -71.497375 174.368256 27.035902 -9.962913 13.121679 -5.882101 9.861277 0.702591 -10.936863 -0.360576 7.156197 3e-06 8.774817 1e-06 -15.855327 17.660709 6.218298 -1.844029 2.498503 -2.507276 -10.163592 4.67894 4.621105 -20.976006 -6e-06 -1e-06 -21.226271 2.45169 -3.593998 1e-06 -4e-06 -2e-06 -1.362681 2.240797 -0.746322 -21.334904 0.584906 3.008318 -13.821206 -5e-06 -3e-06 -23.887159 -0.249083 -0.839485 -58.851616 2.372457 -1.443665 -0.294024 1.679684 0.833254 -14.218199 0.093215 1.300576 -34.212021 -0.28757 0.967168 -20.033199 0.964531 1.212843 -0.0 1e-06 -1e-06 -3.440387 0.788233 0.501654 -15.928177 -3.16731 2.9997 -6.338823 -2e-06 -2e-06 -18.123434 3.648175 -4.905665 -4e-06 0.0 -3e-06 2.14495 8.988811 16.184292 62.85957 -4.959229 11.516997 -1.210039 71.19252 -1.840842 -21.74431 14.539429 8.074357 2.24354 -5.25503 -3.180154 14.282878 -0.826591 6.952497 -5e-06 -12.690588 1e-06 14.738322 -18.104385 3.453677 1.665664 -1.95592 -2.878297 4.727797 -4.170583 4.993917 11.020517 4e-06 0.0 12.109041 -3.735709 -2.866779 0.0 -1e-06 -0.0 1.291983 -1.928549 -1.498088 14.800115 0.567467 3.865603 14.242558 -1.341734 -6.66065 19.63195 0.143927 -0.648241 49.375443 -0.375263 -6.308022 0.353028 -1.511149 -0.031942 20.222775 3.684309 2.316629 18.787256 6e-06 1e-06 10.751619 -0.479869 1.397906 -0.0 0.0 -3e-06 3.273802 0.305949 -0.58011 21.486797 11.830362 2.266133 8.162919 1e-06 -0.0 18.399063 -3.798978 -4.940569 3e-06 0.0 0.0 -1.944807 0.522663 6.896308 0.38005 0.024003 53.481388 -5.914714 -1.014661 19.507059 2.079273 -1.910025 -3.168986 0.0 0.0 2e-06 3.21341 0.533331 -49.221325 0.316076 0.170077 34.920696 10.672876 4.029926 -10.958452 -1.380924 0.774802 -5.926358 -0.0 -0.0 -1e-06 
